<svg width="21" height="20" viewBox="0 0 21 20" fill="none" xmlns="http://www.w3.org/2000/svg">
<path fill-rule="evenodd" clip-rule="evenodd" d="M2.625 10C2.625 5.51269 6.26269 1.875 10.75 1.875C15.2373 1.875 18.875 5.51269 18.875 10C18.875 14.4873 15.2373 18.125 10.75 18.125C6.26269 18.125 2.625 14.4873 2.625 10ZM13.7586 8.48827C13.9592 8.20739 13.8942 7.81705 13.6133 7.61642C13.3324 7.41579 12.942 7.48084 12.7414 7.76173L10.0452 11.5364L8.69194 10.1831C8.44786 9.93898 8.05214 9.93898 7.80806 10.1831C7.56398 10.4271 7.56398 10.8229 7.80806 11.0669L9.68306 12.9419C9.81297 13.0719 9.99346 13.138 10.1766 13.1229C10.3596 13.1077 10.5268 13.0128 10.6336 12.8633L13.7586 8.48827Z" fill="white"/>
</svg>
