<svg width="24" height="24" viewBox="0 0 24 24" fill="none" xmlns="http://www.w3.org/2000/svg">
<path d="M6.2999 14.4004C6.2999 13.9033 6.70285 13.5004 7.1999 13.5004H7.2119C7.70896 13.5004 8.1119 13.9033 8.1119 14.4004V14.4124C8.1119 14.9094 7.70896 15.3124 7.2119 15.3124H7.1999C6.70285 15.3124 6.2999 14.9094 6.2999 14.4124V14.4004Z" fill="#A7302A"/>
<path d="M7.1999 15.9004C6.70285 15.9004 6.2999 16.3033 6.2999 16.8004V16.8124C6.2999 17.3094 6.70285 17.7124 7.1999 17.7124H7.2119C7.70896 17.7124 8.1119 17.3094 8.1119 16.8124V16.8004C8.1119 16.3033 7.70896 15.9004 7.2119 15.9004H7.1999Z" fill="#A7302A"/>
<path d="M8.6999 14.4004C8.6999 13.9033 9.10285 13.5004 9.5999 13.5004H9.6119C10.109 13.5004 10.5119 13.9033 10.5119 14.4004V14.4124C10.5119 14.9094 10.109 15.3124 9.6119 15.3124H9.5999C9.10285 15.3124 8.6999 14.9094 8.6999 14.4124V14.4004Z" fill="#A7302A"/>
<path d="M9.5999 15.9004C9.10285 15.9004 8.6999 16.3033 8.6999 16.8004V16.8124C8.6999 17.3094 9.10285 17.7124 9.5999 17.7124H9.6119C10.109 17.7124 10.5119 17.3094 10.5119 16.8124V16.8004C10.5119 16.3033 10.109 15.9004 9.6119 15.9004H9.5999Z" fill="#A7302A"/>
<path d="M11.0999 12.0004C11.0999 11.5033 11.5028 11.1004 11.9999 11.1004H12.0119C12.509 11.1004 12.9119 11.5033 12.9119 12.0004V12.0124C12.9119 12.5094 12.509 12.9124 12.0119 12.9124H11.9999C11.5028 12.9124 11.0999 12.5094 11.0999 12.0124V12.0004Z" fill="#A7302A"/>
<path d="M11.9999 13.5004C11.5028 13.5004 11.0999 13.9033 11.0999 14.4004V14.4124C11.0999 14.9094 11.5028 15.3124 11.9999 15.3124H12.0119C12.509 15.3124 12.9119 14.9094 12.9119 14.4124V14.4004C12.9119 13.9033 12.509 13.5004 12.0119 13.5004H11.9999Z" fill="#A7302A"/>
<path d="M11.0999 16.8004C11.0999 16.3033 11.5028 15.9004 11.9999 15.9004H12.0119C12.509 15.9004 12.9119 16.3033 12.9119 16.8004V16.8124C12.9119 17.3094 12.509 17.7124 12.0119 17.7124H11.9999C11.5028 17.7124 11.0999 17.3094 11.0999 16.8124V16.8004Z" fill="#A7302A"/>
<path d="M14.3999 11.1004C13.9028 11.1004 13.4999 11.5033 13.4999 12.0004V12.0124C13.4999 12.5094 13.9028 12.9124 14.3999 12.9124H14.4119C14.909 12.9124 15.3119 12.5094 15.3119 12.0124V12.0004C15.3119 11.5033 14.909 11.1004 14.4119 11.1004H14.3999Z" fill="#A7302A"/>
<path d="M13.4999 14.4004C13.4999 13.9033 13.9028 13.5004 14.3999 13.5004H14.4119C14.909 13.5004 15.3119 13.9033 15.3119 14.4004V14.4124C15.3119 14.9094 14.909 15.3124 14.4119 15.3124H14.3999C13.9028 15.3124 13.4999 14.9094 13.4999 14.4124V14.4004Z" fill="#A7302A"/>
<path d="M14.3999 15.9004C13.9028 15.9004 13.4999 16.3033 13.4999 16.8004V16.8124C13.4999 17.3094 13.9028 17.7124 14.3999 17.7124H14.4119C14.909 17.7124 15.3119 17.3094 15.3119 16.8124V16.8004C15.3119 16.3033 14.909 15.9004 14.4119 15.9004H14.3999Z" fill="#A7302A"/>
<path d="M15.8999 12.0004C15.8999 11.5033 16.3028 11.1004 16.7999 11.1004H16.8119C17.309 11.1004 17.7119 11.5033 17.7119 12.0004V12.0124C17.7119 12.5094 17.309 12.9124 16.8119 12.9124H16.7999C16.3028 12.9124 15.8999 12.5094 15.8999 12.0124V12.0004Z" fill="#A7302A"/>
<path d="M16.7999 13.5004C16.3028 13.5004 15.8999 13.9033 15.8999 14.4004V14.4124C15.8999 14.9094 16.3028 15.3124 16.7999 15.3124H16.8119C17.309 15.3124 17.7119 14.9094 17.7119 14.4124V14.4004C17.7119 13.9033 17.309 13.5004 16.8119 13.5004H16.7999Z" fill="#A7302A"/>
<path fill-rule="evenodd" clip-rule="evenodd" d="M6.8999 2.40039C7.39696 2.40039 7.7999 2.80333 7.7999 3.30039V4.80039H16.1999V3.30039C16.1999 2.80333 16.6028 2.40039 17.0999 2.40039C17.597 2.40039 17.9999 2.80333 17.9999 3.30039V4.80039H18.2999C20.1224 4.80039 21.5999 6.27785 21.5999 8.10039V18.3004C21.5999 20.1229 20.1224 21.6004 18.2999 21.6004H5.6999C3.87736 21.6004 2.3999 20.1229 2.3999 18.3004V8.10039C2.3999 6.27785 3.87736 4.80039 5.6999 4.80039H5.9999V3.30039C5.9999 2.80333 6.40285 2.40039 6.8999 2.40039ZM5.6999 9.00039C4.87148 9.00039 4.1999 9.67196 4.1999 10.5004V18.3004C4.1999 19.1288 4.87148 19.8004 5.6999 19.8004H18.2999C19.1283 19.8004 19.7999 19.1288 19.7999 18.3004V10.5004C19.7999 9.67196 19.1283 9.00039 18.2999 9.00039H5.6999Z" fill="#A7302A"/>
</svg>
