<svg width="25" height="24" viewBox="0 0 25 24" fill="none" xmlns="http://www.w3.org/2000/svg">
<path d="M2.75 12.7593C2.75 14.3604 3.87341 15.754 5.45746 15.987C6.54357 16.1467 7.64151 16.27 8.75 16.3556V21L12.826 16.924C13.1017 16.6483 13.4738 16.4919 13.8635 16.481C15.7869 16.4274 17.6821 16.2606 19.5425 15.9871C21.1266 15.7542 22.25 14.3606 22.25 12.7595V6.74056C22.25 5.13946 21.1266 3.74583 19.5425 3.51293C17.244 3.17501 14.8926 3 12.5003 3C10.1078 3 7.75612 3.17504 5.45747 3.51302C3.87342 3.74593 2.75 5.13956 2.75 6.74064V12.7593Z" stroke="#211F20" stroke-width="1.5" stroke-linecap="round" stroke-linejoin="round"/>
</svg>
