<svg width="32" height="32" viewBox="0 0 32 32" fill="none" xmlns="http://www.w3.org/2000/svg">
<path fill-rule="evenodd" clip-rule="evenodd" d="M5.5 4C4.11929 4 3 5.11929 3 6.5V24C3 26.2091 4.79086 28 7 28H27C24.7909 28 23 26.2091 23 24V6.5C23 5.11929 21.8807 4 20.5 4H5.5ZM16 13C15.4477 13 15 13.4477 15 14C15 14.5523 15.4477 15 16 15H18C18.5523 15 19 14.5523 19 14C19 13.4477 18.5523 13 18 13H16ZM15 10C15 9.44772 15.4477 9 16 9H18C18.5523 9 19 9.44772 19 10C19 10.5523 18.5523 11 18 11H16C15.4477 11 15 10.5523 15 10ZM8 17C7.44772 17 7 17.4477 7 18C7 18.5523 7.44772 19 8 19H18C18.5523 19 19 18.5523 19 18C19 17.4477 18.5523 17 18 17H8ZM7 22C7 21.4477 7.44772 21 8 21H18C18.5523 21 19 21.4477 19 22C19 22.5523 18.5523 23 18 23H8C7.44772 23 7 22.5523 7 22ZM8 9C7.44772 9 7 9.44772 7 10V14C7 14.5523 7.44772 15 8 15H12C12.5523 15 13 14.5523 13 14V10C13 9.44772 12.5523 9 12 9H8Z" fill="#A7302A"/>
<path d="M25 9H27.5C28.3284 9 29 9.67157 29 10.5V24C29 25.1046 28.1046 26 27 26C25.8954 26 25 25.1046 25 24V9Z" fill="#A7302A"/>
</svg>
