<svg width="32" height="32" viewBox="0 0 32 32" fill="none" xmlns="http://www.w3.org/2000/svg">
<path fill-rule="evenodd" clip-rule="evenodd" d="M11 9C11 6.23858 13.2386 4 16 4C18.7614 4 21 6.23858 21 9C21 11.7614 18.7614 14 16 14C13.2386 14 11 11.7614 11 9Z" fill="#A7302A"/>
<path fill-rule="evenodd" clip-rule="evenodd" d="M21 13C21 10.7909 22.7909 9 25 9C27.2091 9 29 10.7909 29 13C29 15.2091 27.2091 17 25 17C22.7909 17 21 15.2091 21 13Z" fill="#A7302A"/>
<path fill-rule="evenodd" clip-rule="evenodd" d="M3 13C3 10.7909 4.79086 9 7 9C9.20914 9 11 10.7909 11 13C11 15.2091 9.20914 17 7 17C4.79086 17 3 15.2091 3 13Z" fill="#A7302A"/>
<path fill-rule="evenodd" clip-rule="evenodd" d="M8.41315 20.1567C10.0104 17.6592 12.8111 16 16 16C19.1893 16 21.9903 17.6596 23.5875 20.1576C24.6917 21.8846 25.1694 23.9669 24.9453 25.9972C24.9103 26.3145 24.7259 26.596 24.449 26.7549C21.9592 28.1835 19.0734 29 16 29C12.9266 29 10.0408 28.1835 7.55099 26.7549C7.27412 26.596 7.08973 26.3145 7.05471 25.9972C6.83058 23.9665 7.30855 21.8838 8.41315 20.1567Z" fill="#A7302A"/>
<path d="M6.77638 19.0049C6.76032 19.0296 6.74436 19.0543 6.7285 19.0791C5.44122 21.0919 4.85211 23.4889 5.03295 25.852C4.22222 25.7289 3.4356 25.5308 2.68057 25.2649L2.52729 25.2109C2.24768 25.1124 2.0523 24.8585 2.02879 24.563L2.0159 24.401C2.00536 24.2685 2 24.1348 2 24C2 21.3135 4.11873 19.1219 6.77638 19.0049Z" fill="#A7302A"/>
<path d="M26.9675 25.8519C27.1483 23.4893 26.5595 21.0928 25.2727 19.0802C25.2566 19.0551 25.2404 19.03 25.2241 19.0049C27.8815 19.1222 30 21.3137 30 24C30 24.1348 29.9946 24.2685 29.9841 24.401L29.9712 24.563C29.9477 24.8585 29.7523 25.1124 29.4727 25.2109L29.3194 25.2649C28.5645 25.5307 27.7781 25.7288 26.9675 25.8519Z" fill="#A7302A"/>
</svg>
