<svg width="32" height="32" viewBox="0 0 32 32" fill="none" xmlns="http://www.w3.org/2000/svg">
<path d="M15.5997 3.74039C15.855 3.62886 16.1452 3.62886 16.4005 3.74039C21.3589 5.90681 26.0583 8.55516 30.4394 11.6261C30.7564 11.8483 30.9167 12.2336 30.8508 12.6151C30.7849 12.9967 30.5047 13.3059 30.1315 13.4089C29.2182 13.661 28.3129 13.9325 27.4158 14.2218C23.7743 15.3962 20.269 16.8738 16.9295 18.625L16.9252 18.6273C16.7738 18.7067 16.6227 18.7867 16.472 18.8672C16.1775 19.0246 15.8239 19.0246 15.5294 18.8672C15.3773 18.7859 15.2248 18.7052 15.0719 18.625C13.4206 17.7591 11.7288 16.9601 10 16.2315V15.9333C10 15.7581 10.0899 15.6027 10.229 15.5185C12.2358 14.3027 14.3058 13.1809 16.433 12.1591C16.9308 11.92 17.1405 11.3226 16.9014 10.8248C16.6623 10.3269 16.0649 10.1172 15.567 10.3563C13.3814 11.4062 11.2545 12.5588 9.19266 13.8079C8.58815 14.1741 8.18177 14.7735 8.04809 15.445C6.9082 15.0066 5.75332 14.5981 4.58439 14.2212C3.68729 13.9319 2.78192 13.6609 1.86873 13.4089C1.4955 13.3059 1.21528 12.9967 1.14939 12.6151C1.08349 12.2336 1.24377 11.8483 1.56082 11.6261C5.94194 8.55515 10.6413 5.90681 15.5997 3.74039Z" fill="#A7302A"/>
<path d="M17.4145 20.6312C20.6663 18.8937 24.0828 17.4249 27.6344 16.2541C27.8134 18.1405 27.9277 20.0457 27.975 21.9673C27.9852 22.3796 27.7412 22.7558 27.3606 22.9147C23.5591 24.5019 19.9432 26.4454 16.5546 28.7036C16.2188 28.9274 15.7813 28.9274 15.4455 28.7036C12.0569 26.4454 8.44097 24.5019 4.63946 22.9147C4.25888 22.7558 4.01488 22.3796 4.02504 21.9673C4.07238 20.0455 4.18668 18.1403 4.3657 16.2537C5.5937 16.6585 6.80554 17.0989 8 17.5737V19.2676C7.4022 19.6134 7 20.2597 7 21C7 21.6604 7.32011 22.2461 7.81363 22.6103C7.69427 23.1178 7.51763 23.6144 7.28369 24.09C7.88729 24.3749 8.48571 24.6689 9.0788 24.9719C9.41658 24.2849 9.66149 23.5639 9.81352 22.8276C10.5127 22.5159 11 21.8149 11 21C11 20.2597 10.5978 19.6134 10 19.2676V18.4079C11.5619 19.0903 13.0918 19.8324 14.5869 20.6312C15.4703 21.1033 16.5311 21.1033 17.4145 20.6312Z" fill="#A7302A"/>
<path d="M5.94963 25.9497C6.50847 25.3909 6.95336 24.7614 7.28369 24.09C7.88729 24.3749 8.48571 24.6689 9.0788 24.9719C8.65406 25.8357 8.08218 26.6456 7.36384 27.3639C6.97332 27.7545 6.34016 27.7545 5.94963 27.3639C5.55911 26.9734 5.55911 26.3403 5.94963 25.9497Z" fill="#A7302A"/>
</svg>
