<svg width="32" height="32" viewBox="0 0 32 32" fill="none" xmlns="http://www.w3.org/2000/svg">
<path fill-rule="evenodd" clip-rule="evenodd" d="M2 8.5C2 7.11929 3.11929 6 4.5 6H27.5C28.8807 6 30 7.11929 30 8.5V12.5351C30 12.8921 29.8097 13.222 29.5007 13.4007C28.6014 13.921 28 14.8908 28 16C28 17.1092 28.6014 18.079 29.5007 18.5993C29.8097 18.778 30 19.1079 30 19.4649V23.5C30 24.8807 28.8807 26 27.5 26H4.5C3.11929 26 2 24.8807 2 23.5V19.4649C2 19.1079 2.19028 18.778 2.49927 18.5993C3.39859 18.079 4 17.1092 4 16C4 14.8908 3.39859 13.921 2.49927 13.4007C2.19028 13.222 2 12.8921 2 12.5351V8.5ZM22 7C22.5523 7 23 7.44772 23 8V9C23 9.55228 22.5523 10 22 10C21.4477 10 21 9.55228 21 9V8C21 7.44772 21.4477 7 22 7ZM23 13C23 12.4477 22.5523 12 22 12C21.4477 12 21 12.4477 21 13V14C21 14.5523 21.4477 15 22 15C22.5523 15 23 14.5523 23 14V13ZM22 17C22.5523 17 23 17.4477 23 18V19C23 19.5523 22.5523 20 22 20C21.4477 20 21 19.5523 21 19V18C21 17.4477 21.4477 17 22 17ZM23 23C23 22.4477 22.5523 22 22 22C21.4477 22 21 22.4477 21 23V24C21 24.5523 21.4477 25 22 25C22.5523 25 23 24.5523 23 24V23ZM8 16C8 15.4477 8.44772 15 9 15H16C16.5523 15 17 15.4477 17 16C17 16.5523 16.5523 17 16 17H9C8.44772 17 8 16.5523 8 16ZM9 19C8.44772 19 8 19.4477 8 20C8 20.5523 8.44772 21 9 21H13C13.5523 21 14 20.5523 14 20C14 19.4477 13.5523 19 13 19H9Z" fill="#A7302A"/>
</svg>
