<svg width="12" height="12" viewBox="0 0 12 12" fill="none" xmlns="http://www.w3.org/2000/svg">
<path d="M6 10.5C8.09629 10.5 9.85779 9.06661 10.3579 7.12647M6 10.5C3.90371 10.5 2.14221 9.06661 1.64215 7.12647M6 10.5C7.24264 10.5 8.25 8.48528 8.25 6C8.25 3.51472 7.24264 1.5 6 1.5M6 10.5C4.75736 10.5 3.75 8.48528 3.75 6C3.75 3.51472 4.75736 1.5 6 1.5M6 1.5C7.6826 1.5 9.1495 2.42347 9.92154 3.79122M6 1.5C4.3174 1.5 2.8505 2.42347 2.07846 3.79122M9.92154 3.79122C8.86986 4.70019 7.49914 5.25 6 5.25C4.50086 5.25 3.13013 4.70019 2.07846 3.79122M9.92154 3.79122C10.2898 4.44371 10.5 5.19731 10.5 6C10.5 6.38899 10.4506 6.76646 10.3579 7.12647M10.3579 7.12647C9.06669 7.84237 7.58095 8.25 6 8.25C4.41905 8.25 2.93331 7.84237 1.64215 7.12647M1.64215 7.12647C1.54936 6.76646 1.5 6.38899 1.5 6C1.5 5.19731 1.71016 4.44371 2.07846 3.79122" stroke="#545353" stroke-linecap="round" stroke-linejoin="round"/>
</svg>
