<svg width="21" height="20" viewBox="0 0 21 20" fill="none" xmlns="http://www.w3.org/2000/svg">
<path fill-rule="evenodd" clip-rule="evenodd" d="M4.25 10C4.25 9.30964 4.80964 8.75 5.5 8.75C6.19036 8.75 6.75 9.30964 6.75 10C6.75 10.6904 6.19036 11.25 5.5 11.25C4.80964 11.25 4.25 10.6904 4.25 10ZM9.25 10C9.25 9.30964 9.80964 8.75 10.5 8.75C11.1904 8.75 11.75 9.30964 11.75 10C11.75 10.6904 11.1904 11.25 10.5 11.25C9.80964 11.25 9.25 10.6904 9.25 10ZM14.25 10C14.25 9.30964 14.8096 8.75 15.5 8.75C16.1904 8.75 16.75 9.30964 16.75 10C16.75 10.6904 16.1904 11.25 15.5 11.25C14.8096 11.25 14.25 10.6904 14.25 10Z" fill="#0F172A"/>
</svg>
