<svg width="21" height="20" viewBox="0 0 21 20" fill="none" xmlns="http://www.w3.org/2000/svg">
<path d="M10.3172 2.91569C10.4774 2.53071 11.0227 2.53071 11.1829 2.91569L12.9545 7.17524C13.022 7.33753 13.1746 7.44843 13.3498 7.46247L17.9484 7.83114C18.364 7.86446 18.5325 8.38313 18.2159 8.65438L14.7123 11.6556C14.5788 11.7699 14.5205 11.9494 14.5613 12.1203L15.6317 16.6077C15.7284 17.0133 15.2872 17.3339 14.9314 17.1165L10.9944 14.7118C10.8444 14.6202 10.6557 14.6202 10.5057 14.7118L6.56872 17.1165C6.21289 17.3339 5.77168 17.0133 5.86842 16.6077L6.93883 12.1203C6.97961 11.9494 6.92131 11.7699 6.78782 11.6556L3.28422 8.65438C2.96756 8.38313 3.13609 7.86446 3.5517 7.83114L8.15024 7.46247C8.32546 7.44843 8.47809 7.33753 8.54559 7.17524L10.3172 2.91569Z" stroke="#878687" stroke-width="1.5" stroke-linecap="round" stroke-linejoin="round"/>
</svg>
