<svg width="20" height="20" viewBox="0 0 20 20" fill="none" xmlns="http://www.w3.org/2000/svg">
<path fill-rule="evenodd" clip-rule="evenodd" d="M9.78234 1.66602C14.2573 1.66602 17.8973 5.30602 17.8973 9.78102C17.8973 11.8923 17.0871 13.8179 15.7612 15.2631L18.3702 17.8666C18.6143 18.1108 18.6152 18.5058 18.371 18.7499C18.2493 18.8733 18.0885 18.9341 17.9285 18.9341C17.7693 18.9341 17.6093 18.8733 17.4868 18.7516L14.8464 16.1185C13.4574 17.2309 11.6962 17.8968 9.78234 17.8968C5.30734 17.8968 1.6665 14.256 1.6665 9.78102C1.6665 5.30602 5.30734 1.66602 9.78234 1.66602ZM9.78234 2.91602C5.9965 2.91602 2.9165 5.99518 2.9165 9.78102C2.9165 13.5668 5.9965 16.6468 9.78234 16.6468C13.5673 16.6468 16.6473 13.5668 16.6473 9.78102C16.6473 5.99518 13.5673 2.91602 9.78234 2.91602Z" fill="#949393"/>
</svg>
